<?xml version="1.0" encoding="UTF-8"?>
<!DOCTYPE svg PUBLIC "-//W3C//DTD SVG 1.1//EN" "http://www.w3.org/Graphics/SVG/1.1/DTD/svg11.dtd">
<!-- Creator: CorelDRAW X6 -->
<svg xmlns="http://www.w3.org/2000/svg" xml:space="preserve" width="18.7554mm" height="21.1384mm" version="1.1" style="shape-rendering:geometricPrecision; text-rendering:geometricPrecision; image-rendering:optimizeQuality; fill-rule:evenodd; clip-rule:evenodd"
viewBox="0 0 119 134"
 xmlns:xlink="http://www.w3.org/1999/xlink">
 <defs>
  <style type="text/css">
   <![CDATA[
    .fil0 {fill:white;fill-rule:nonzero}
   ]]>
  </style>
 </defs>
 <g id="Capa_x0020_1">
  <metadata id="CorelCorpID_0Corel-Layer"/>
  <path class="fil0" d="M25 102c0,0 -1,0 0,0 0,0 0,0 0,0 13,0 26,0 38,0 1,0 1,0 1,-1 0,-5 0,-9 -2,-14 -2,-5 -6,-9 -10,-13 -1,0 -1,0 -1,0 -7,7 -13,14 -20,20 -2,2 -4,4 -6,6zm39 32c-1,0 -2,0 -2,-1 -3,-2 -5,-6 -3,-9 1,-2 2,-4 3,-6 0,-1 0,-1 -1,-1 -17,0 -35,0 -52,0 -3,0 -5,-1 -7,-4 -2,-3 -1,-6 1,-9 3,-3 7,-7 10,-10 8,-8 17,-17 25,-25 0,0 0,0 1,-1 -1,0 -2,-1 -3,-1 -3,-1 -6,-1 -10,-2 -3,0 -6,-4 -6,-7 0,-4 3,-7 6,-7 2,0 3,0 5,0 6,1 13,3 18,5 0,0 1,0 1,0 8,-7 15,-15 23,-22 11,-11 22,-22 33,-32 1,-1 3,-2 5,-2l2 0c0,0 0,0 0,0 3,1 5,2 6,5 1,3 0,5 -2,8 -6,6 -13,12 -19,19 -10,10 -20,20 -31,30 -1,1 -2,3 -4,4 1,1 2,1 2,2 6,5 11,12 13,20 1,5 2,10 1,15 0,1 0,1 1,1 5,0 10,0 15,0 6,0 12,0 18,0 3,0 5,2 6,4 1,3 1,5 -1,7 -2,2 -4,3 -6,3 -11,0 -23,0 -34,0 -1,0 -1,0 -1,1 -1,4 -3,8 -5,12 -1,2 -2,3 -5,4 0,0 -1,0 -1,0l-2 0z"/>
 </g>
</svg>
