<svg
  xmlns="http://www.w3.org/2000/svg"
  viewBox="0 0 1220 1375"
  aria-labelledby="title"
  width="4em"
  height="4em"
  fill="currentColor"
>
  <title id="title">Angle Left</title>
  <path d="M254 1047c1,1 -6,2 2,3 1,0 2,0 3,0 131,0 262,0 393,0 5,0 7,-2 7,-7 4,-48 0,-95 -18,-140 -22,-54 -58,-95 -104,-128 -6,-4 -8,-3 -13,1 -68,69 -136,138 -204,207 -21,21 -43,42 -65,63zm396 329c-9,-3 -17,-5 -26,-9 -34,-18 -48,-59 -34,-94 9,-22 19,-43 27,-64 3,-8 3,-8 -5,-8 -178,0 -355,0 -533,0 -30,0 -54,-11 -70,-37 -17,-28 -13,-65 10,-89 34,-36 69,-70 104,-106 85,-86 170,-173 255,-259 2,-2 4,-4 6,-6 -10,-4 -20,-7 -30,-9 -32,-9 -65,-15 -99,-20 -36,-5 -63,-37 -63,-73 0,-37 27,-69 63,-74 18,-3 34,1 51,4 65,11 128,28 189,54 5,2 7,0 10,-3 77,-75 154,-150 231,-224 114,-110 228,-221 341,-331 13,-13 29,-21 47,-25l20 0c1,0 2,1 3,1 30,6 51,23 60,53 9,29 1,55 -21,77 -65,63 -131,127 -196,190 -104,101 -209,202 -313,303 -13,13 -25,27 -38,41 7,6 16,13 25,21 64,56 109,125 132,208 13,49 17,98 14,149 0,7 1,9 8,9 50,0 99,0 149,0 61,0 121,-1 182,1 29,0 51,16 63,42 13,26 10,52 -7,76 -16,23 -39,32 -66,31 -117,0 -234,0 -352,0 -5,0 -8,1 -9,7 -13,43 -30,84 -49,124 -10,20 -25,34 -46,41 -4,1 -9,2 -13,3l-20 0z"/>
</svg>
