<svg
  xmlns="http://www.w3.org/2000/svg"
  viewBox="0 0 353 614"
  aria-labelledby="title"
  width="1em"
  height="1em"
  fill="currentColor"
>
  <title id="title">Bars</title>
  <path d="M177 232c43,0 77,35 77,77 0,43 -35,77 -77,77 -43,0 -77,-35 -77,-77 0,-43 35,-77 77,-77zm0 35c23,0 42,19 42,42 0,23 -19,42 -42,42 -23,0 -42,-19 -42,-42 0,-23 19,-42 42,-42z"/>
  <path d="M22 416l315 -1c12,1 28,14 8,36l-154 154c-11,12 -16,11 -28,3l-157 -157c-14,-20 4,-33 17,-36zm291 22l-265 3c-15,0 -9,7 -2,13l126 130c4,5 5,5 10,0l137 -137c4,-4 1,-9 -5,-9z"/>
  <path d="M22 198l315 1c12,-1 28,-14 8,-36l-154 -154c-11,-12 -16,-11 -28,-3l-157 157c-14,20 4,33 17,36zm291 -22l-265 -3c-15,0 -9,-7 -2,-13l126 -130c4,-5 5,-5 10,0l137 137c4,4 1,9 -5,9z"/>
</svg>
