<svg
  xmlns="http://www.w3.org/2000/svg"
  viewBox="0 0 159971 159908"
  aria-labelledby="title"
  width="1em"
  height="1em"
  stroke="currentColor"
  fill="currentColor"
>
 <title id="title">Measure Temp</title>
 <g>
  <path d="M83647 68803c-1605,-48 -2549,-627 -3075,-1759 -609,-1309 -376,-2570 599,-3604 1499,-1591 3035,-3148 4622,-4648 675,-637 794,-1031 55,-1720 -1636,-1525 -3229,-3103 -4754,-4739 -702,-752 -1109,-744 -1824,-8 -2864,2949 -5791,5837 -8702,8742 -874,873 -1862,1514 -3178,1277 -1371,-247 -2197,-1120 -2573,-2418 -424,-1461 375,-2500 1313,-3445 2896,-2916 5795,-5829 8727,-8708 587,-576 763,-919 63,-1577 -1743,-1638 -3423,-3348 -5075,-5080 -571,-598 -879,-427 -1367,76 -1521,1570 -3072,3111 -4645,4631 -1475,1424 -3382,1411 -4703,15 -1136,-1200 -1035,-3161 265,-4490 1492,-1524 2948,-3093 4541,-4508 801,-713 623,-1061 -21,-1676 -1506,-1437 -3014,-2882 -4397,-4434 -936,-1049 -1507,-1096 -2529,-25 -2906,3050 -5954,5965 -8949,8931 -970,962 -2157,1044 -3327,588 -1079,-422 -1733,-1331 -1876,-2506 -153,-1260 527,-2181 1360,-3015 2940,-2945 5859,-5911 8831,-8823 627,-615 675,-964 15,-1589 -1663,-1575 -3278,-3203 -4848,-4868 -643,-682 -1042,-763 -1722,-22 -1372,1493 -2841,2897 -4288,4320 -1018,1001 -2171,1661 -3651,1084 -2388,-931 -2799,-3642 -851,-5598 1431,-1436 2859,-2876 4335,-4266 608,-572 733,-938 48,-1586 -1739,-1644 -3426,-3346 -5066,-5088 -667,-710 -977,-342 -1470,158 -3365,3404 -6750,6785 -10136,10166 -5595,5588 -11172,11194 -16817,16729 -882,866 -775,1293 43,2053 1678,1556 3262,3214 4881,4834 13352,13369 26697,26744 40058,40106 11778,11779 23575,23538 35356,35311 10788,10780 21563,21574 32355,32349 2388,2385 2411,2363 4762,13 8459,-8461 16907,-16933 25397,-25364 776,-771 822,-1203 14,-1953 -1600,-1487 -3138,-3044 -4632,-4638 -697,-743 -1113,-743 -1842,8 -2895,2987 -5862,5905 -8812,8840 -1615,1607 -3444,1688 -4801,239 -1342,-1433 -1172,-3205 430,-4803 2946,-2942 5859,-5914 8832,-8828 639,-627 635,-988 2,-1595 -1765,-1694 -3483,-3437 -5184,-5197 -447,-462 -684,-408 -1104,28 -1517,1572 -3083,3097 -4622,4649 -1488,1502 -3447,1603 -4815,236 -1252,-1251 -1149,-3133 275,-4590 1455,-1488 2867,-3031 4421,-4407 855,-757 666,-1157 -27,-1810 -1476,-1394 -3014,-2751 -4291,-4316 -1127,-1381 -1762,-876 -2721,115 -2748,2840 -5569,5610 -8382,8387 -877,866 -1866,1512 -3209,1144 -2621,-719 -3223,-3516 -1144,-5640 2912,-2976 5866,-5910 8840,-8825 651,-636 800,-1032 45,-1733 -1678,-1555 -3289,-3187 -4865,-4847 -621,-654 -1001,-637 -1608,9 -1353,1439 -2787,2802 -4182,4204 -1648,1657 -3577,1865 -4947,524 -1392,-1360 -1247,-3296 378,-4939 1428,-1443 2839,-2905 4305,-4307 573,-548 636,-891 24,-1475 -1695,-1617 -3361,-3266 -4954,-4982 -626,-673 -934,-639 -1557,-2 -2911,2977 -5874,5903 -8829,8835 -865,860 -1809,1598 -3151,1288 -1308,-303 -2230,-1003 -2590,-2390 -348,-1347 233,-2328 1100,-3205 2963,-2997 5919,-6004 8945,-8938 716,-694 698,-1045 6,-1700 -1664,-1572 -3278,-3201 -4857,-4860 -611,-641 -991,-645 -1606,10 -1387,1481 -2846,2892 -4302,4306 -749,728 -1538,1429 -2368,1342zm-83647 -33173c1710,-2983 4480,-5003 6827,-7390 7656,-7790 15418,-15475 23142,-23198 1104,-1103 2242,-2172 3330,-3290 2252,-2314 3755,-2344 6058,-43 5078,5070 10144,10153 15219,15225 14569,14554 29146,29101 43708,43661 10443,10441 20862,20906 31302,31351 9704,9708 19419,19407 29147,29092 530,528 777,1211 1237,1764l0 1563c-1333,2421 -3534,4065 -5425,5971 -9088,9163 -18246,18255 -27347,27404 -2860,2876 -4243,2892 -7099,31 -8671,-8689 -17381,-17340 -26062,-26018 -7062,-7060 -14096,-14148 -21159,-21208 -11734,-11730 -23488,-23440 -35221,-35171 -10042,-10040 -20062,-20100 -30093,-30150 -1875,-1879 -3741,-3764 -5635,-5622 -744,-730 -1416,-1503 -1931,-2411l0 -1562z"/>
  <path d="M83647 68803c-1605,-48 -2549,-627 -3075,-1759 -609,-1309 -376,-2570 599,-3604 1499,-1591 3035,-3148 4622,-4648 675,-637 794,-1031 55,-1720 -1636,-1525 -3229,-3103 -4754,-4739 -702,-752 -1109,-744 -1824,-8 -2864,2949 -5791,5837 -8702,8742 -874,873 -1862,1514 -3178,1277 -1371,-247 -2197,-1120 -2573,-2418 -424,-1461 375,-2500 1313,-3445 2896,-2916 5795,-5829 8727,-8708 587,-576 763,-919 63,-1577 -1743,-1638 -3423,-3348 -5075,-5080 -571,-598 -879,-427 -1367,76 -1521,1570 -3072,3111 -4645,4631 -1475,1424 -3382,1411 -4703,15 -1136,-1200 -1035,-3161 265,-4490 1492,-1524 2948,-3093 4541,-4508 801,-713 623,-1061 -21,-1676 -1506,-1437 -3014,-2882 -4397,-4434 -936,-1049 -1507,-1096 -2529,-25 -2906,3050 -5954,5965 -8949,8931 -970,962 -2157,1044 -3327,588 -1079,-422 -1733,-1331 -1876,-2506 -153,-1260 527,-2181 1360,-3015 2940,-2945 5859,-5911 8831,-8823 627,-615 675,-964 15,-1589 -1663,-1575 -3278,-3203 -4848,-4868 -643,-682 -1042,-763 -1722,-22 -1372,1493 -2841,2897 -4288,4320 -1018,1001 -2171,1661 -3651,1084 -2388,-931 -2799,-3642 -851,-5598 1431,-1436 2859,-2876 4335,-4266 608,-572 733,-938 48,-1586 -1739,-1644 -3426,-3346 -5066,-5088 -667,-710 -977,-342 -1470,158 -3365,3404 -6750,6785 -10136,10166 -5595,5588 -11172,11194 -16817,16729 -882,866 -775,1293 43,2053 1678,1556 3262,3214 4881,4834 13352,13369 26697,26744 40058,40106 11778,11779 23575,23538 35356,35311 10788,10780 21563,21574 32355,32349 2388,2385 2411,2363 4762,13 8459,-8461 16907,-16933 25397,-25364 776,-771 822,-1203 14,-1953 -1600,-1487 -3138,-3044 -4632,-4638 -697,-743 -1113,-743 -1842,8 -2895,2987 -5862,5905 -8812,8840 -1615,1607 -3444,1688 -4801,239 -1342,-1433 -1172,-3205 430,-4803 2946,-2942 5859,-5914 8832,-8828 639,-627 635,-988 2,-1595 -1765,-1694 -3483,-3437 -5184,-5197 -447,-462 -684,-408 -1104,28 -1517,1572 -3083,3097 -4622,4649 -1488,1502 -3447,1603 -4815,236 -1252,-1251 -1149,-3133 275,-4590 1455,-1488 2867,-3031 4421,-4407 855,-757 666,-1157 -27,-1810 -1476,-1394 -3014,-2751 -4291,-4316 -1127,-1381 -1762,-876 -2721,115 -2748,2840 -5569,5610 -8382,8387 -877,866 -1866,1512 -3209,1144 -2621,-719 -3223,-3516 -1144,-5640 2912,-2976 5866,-5910 8840,-8825 651,-636 800,-1032 45,-1733 -1678,-1555 -3289,-3187 -4865,-4847 -621,-654 -1001,-637 -1608,9 -1353,1439 -2787,2802 -4182,4204 -1648,1657 -3577,1865 -4947,524 -1392,-1360 -1247,-3296 378,-4939 1428,-1443 2839,-2905 4305,-4307 573,-548 636,-891 24,-1475 -1695,-1617 -3361,-3266 -4954,-4982 -626,-673 -934,-639 -1557,-2 -2911,2977 -5874,5903 -8829,8835 -865,860 -1809,1598 -3151,1288 -1308,-303 -2230,-1003 -2590,-2390 -348,-1347 233,-2328 1100,-3205 2963,-2997 5919,-6004 8945,-8938 716,-694 698,-1045 6,-1700 -1664,-1572 -3278,-3201 -4857,-4860 -611,-641 -991,-645 -1606,10 -1387,1481 -2846,2892 -4302,4306 -749,728 -1538,1429 -2368,1342zm-83647 -33173c1710,-2983 4480,-5003 6827,-7390 7656,-7790 15418,-15475 23142,-23198 1104,-1103 2242,-2172 3330,-3290 2252,-2314 3755,-2344 6058,-43 5078,5070 10144,10153 15219,15225 14569,14554 29146,29101 43708,43661 10443,10441 20862,20906 31302,31351 9704,9708 19419,19407 29147,29092 530,528 777,1211 1237,1764l0 1563c-1333,2421 -3534,4065 -5425,5971 -9088,9163 -18246,18255 -27347,27404 -2860,2876 -4243,2892 -7099,31 -8671,-8689 -17381,-17340 -26062,-26018 -7062,-7060 -14096,-14148 -21159,-21208 -11734,-11730 -23488,-23440 -35221,-35171 -10042,-10040 -20062,-20100 -30093,-30150 -1875,-1879 -3741,-3764 -5635,-5622 -744,-730 -1416,-1503 -1931,-2411l0 -1562z"/>
  <path d="M40677 51402c-8,1356 -631,2316 -1760,2791 -1358,572 -2664,268 -3731,-770 -1454,-1414 -2875,-2863 -4312,-4295 -3831,-3821 -7667,-7637 -11492,-11463 -1311,-1312 -1645,-2824 -891,-4084 767,-1282 1876,-1915 3407,-1630 864,160 1485,720 2076,1312 5073,5083 10141,10171 15211,15255 822,824 1575,1680 1490,2883z"/>
  <path d="M40677 51402c-8,1356 -631,2316 -1760,2791 -1358,572 -2664,268 -3731,-770 -1454,-1414 -2875,-2863 -4312,-4295 -3831,-3821 -7667,-7637 -11492,-11463 -1311,-1312 -1645,-2824 -891,-4084 767,-1282 1876,-1915 3407,-1630 864,160 1485,720 2076,1312 5073,5083 10141,10171 15211,15255 822,824 1575,1680 1490,2883z"/>
 </g>
</svg>
