<?xml version="1.0" encoding="UTF-8"?>
<!DOCTYPE svg PUBLIC "-//W3C//DTD SVG 1.1//EN" "http://www.w3.org/Graphics/SVG/1.1/DTD/svg11.dtd">
<!-- Creator: CorelDRAW X6 -->
<svg xmlns="http://www.w3.org/2000/svg" xml:space="preserve" width="1em" height="1em" version="1.1" style="shape-rendering:geometricPrecision; text-rendering:geometricPrecision; image-rendering:optimizeQuality; fill-rule:evenodd; clip-rule:evenodd"
viewBox="0 0 2970 3651"
 xmlns:xlink="http://www.w3.org/1999/xlink">
 <defs>
  <style type="text/css">
   <![CDATA[
    .fil4 {fill:#52A11F}
    .fil0 {fill:#C0DCF3}
    .fil3 {fill:#52A11F;fill-rule:nonzero}
    .fil1 {fill:#C0DCF3;fill-rule:nonzero}
    .fil2 {fill:#AAD34B;fill-rule:nonzero}
   ]]>
  </style>
 </defs>
 <g id="Capa_x0020_1">
  <metadata id="CorelCorpID_0Corel-Layer"/>
  <path class="fil0" d="M2857 260l0 619c0,84 -89,92 -119,51 -14,-18 -11,-34 -11,-63l0 -569c0,-86 -24,-167 -124,-167l-2344 0c-21,0 -42,4 -58,10 -54,24 -72,74 -72,138l0 1725c0,187 170,148 315,148 107,0 1335,-3 1359,4 83,-2 81,120 7,122 -140,5 -379,4 -451,4 -194,0 -1068,9 -1157,-6 -61,-10 -112,-49 -146,-88 -35,-42 -57,-103 -57,-178l0 -1750c0,-40 8,-72 20,-103 20,-53 67,-104 118,-130 24,-12 70,-27 103,-27l2375 0c93,0 184,68 219,152 12,29 22,70 22,108z"/>
  <path class="fil1" d="M2076 2704l856 0c51,3 52,176 0,177l-342 0 0 738c-2,39 -171,44 -172,0l0 -738 -342 0c-46,-4 -64,-172 0,-177z"/>
  <path class="fil1" d="M1759 2738c0,-47 168,-45 170,0l0 850c-2,60 -168,64 -170,0l0 -850z"/>
  <path class="fil1" d="M1249 3080l0 165 0 343c-3,69 -174,69 -170,0l0 -851c5,-67 165,-65 170,0l0 343z"/>
  <path class="fil2" d="M1344 3078c-48,3 -40,163 0,165l318 0c42,0 37,-166 0,-165l-318 0z"/>
  <path class="fil3" d="M1344 3078c-48,3 -40,163 0,165l318 0c42,0 37,-166 0,-165l-318 0z"/>
  <path class="fil1" d="M388 2694c114,0 180,3 197,8 47,6 99,28 157,64 32,22 66,55 101,100 64,87 96,186 96,297 0,65 -11,126 -34,184 -45,112 -119,194 -221,244 -48,27 -121,40 -219,40l-362 0 -19 -4c-76,3 -81,-174 0,-178l399 0c43,0 76,-4 99,-12 62,-23 107,-57 136,-103 35,-58 52,-114 52,-169 0,-55 -15,-109 -45,-163 -19,-31 -40,-54 -63,-70 -42,-38 -101,-57 -179,-57l-399 0c-62,0 -70,-184 0,-182l305 0z"/>
  <path class="fil4" d="M1172 374l-666 0c-81,0 -147,66 -147,147l0 0c0,81 66,147 147,147l666 0c81,0 147,-66 147,-147l0 0c0,-81 -66,-147 -147,-147z"/>
 </g>
</svg>
