<?xml version="1.0" standalone="no"?>
<!DOCTYPE svg PUBLIC "-//W3C//DTD SVG 20010904//EN"
 "http://www.w3.org/TR/2001/REC-SVG-20010904/DTD/svg10.dtd">
<svg version="1.0" xmlns="http://www.w3.org/2000/svg"
 width="642.000000pt" height="763.000000pt" viewBox="0 0 642.000000 763.000000"
 preserveAspectRatio="xMidYMid meet">
<metadata>
Created by potrace 1.15, written by Peter Selinger 2001-2017
</metadata>

<title id="title">logop</title>
<g transform="translate(0.000000,763.000000) scale(0.100000,-0.100000)"
fill="#000000" stroke="none">
<path d="M763 7392 c-10 -6 2302 -6 4037 1 366 1 -390 3 -1680 4 -1290 2
-2350 -1 -2357 -5z"/>
<path d="M1947 7123 c645 -2 1701 -2 2345 0 645 1 118 2 -1172 2 -1290 0
-1817 -1 -1173 -2z"/>
<path d="M575 5150 c0 -971 1 -1368 2 -882 2 485 2 1279 0 1765 -1 485 -2 88
-2 -883z"/>
<path d="M1280 6670 c0 -5 -9 -10 -20 -10 -11 0 -20 -3 -20 -7 0 -5 324 -8
720 -8 396 0 720 3 720 8 0 4 -9 7 -19 7 -11 0 -22 6 -25 13 -5 10 -7 10 -12
0 -7 -17 -1324 -19 -1324 -3 0 6 -4 10 -10 10 -5 0 -10 -4 -10 -10z"/>
<path d="M4279 6147 c-73 -49 -69 12 -69 -992 0 -705 -3 -905 -13 -925 -16
-31 -61 -54 -91 -46 -29 7 -73 43 -247 203 -79 73 -159 140 -179 150 -19 9
-67 19 -107 21 -60 3 -80 0 -125 -20 -78 -37 -103 -60 -90 -84 20 -37 1161
-1162 1225 -1208 145 -103 277 -145 482 -153 120 -5 152 -2 229 16 324 78 569
317 651 636 31 120 36 237 33 705 -3 463 -3 465 -26 501 -31 50 -80 72 -148
67 -39 -3 -61 -11 -80 -29 -49 -46 -58 -75 -60 -204 -3 -130 -12 -157 -54
-175 -38 -16 -79 -2 -101 34 -17 28 -19 52 -19 226 0 107 -5 211 -10 231 -13
47 -55 85 -111 100 -43 11 -50 10 -95 -12 -37 -18 -54 -35 -71 -69 -21 -39
-23 -59 -23 -180 0 -173 -12 -203 -81 -208 -36 -2 -49 1 -65 19 -17 19 -20 41
-24 238 -5 192 -8 221 -26 256 -41 79 -140 104 -219 55 -54 -34 -59 -51 -65
-225 -4 -132 -8 -166 -23 -188 -24 -38 -63 -51 -99 -36 -59 24 -58 16 -58 631
0 534 -1 565 -20 605 -25 56 -70 83 -136 83 -36 0 -61 -6 -85 -23z"/>
<path d="M1250 6070 c0 -7 243 -10 710 -10 467 0 710 3 710 10 0 7 -243 10
-710 10 -467 0 -710 -3 -710 -10z"/>
<path d="M1728 3163 c314 -2 830 -2 1145 0 314 1 57 2 -573 2 -630 0 -887 -1
-572 -2z"/>
<path d="M4354 1743 l19 -23 338 0 339 0 3 -727 2 -728 3 733 2 732 -342 0
c-311 0 -343 2 -362 18 -21 17 -21 17 -2 -5z"/>
</g>
</svg>
