
<svg
  xmlns="http://www.w3.org/2000/svg"
  viewBox="0 0 1276 1275"

  aria-labelledby="title"
  width="1em"
  height="1em"
  stroke="currentColor"
  fill="currentColor"
>
  <title id="title">Search Plus</title>
  <g>
   <path d="M482 159c57,-4 105,3 154,20 56,20 106,57 145,100 14,15 34,44 44,65 119,229 -30,500 -280,520 -54,4 -107,-3 -154,-20 -35,-13 -87,-42 -111,-66 -16,-16 -28,-26 -44,-46 -76,-93 -98,-229 -56,-344 47,-127 165,-220 302,-230zm735 882l-86 -86 -3 -4c-9,-5 -34,-32 -43,-41l-84 -84c-8,-8 -14,-14 -21,-21 -6,-6 -13,-15 -20,-21l-7 -6c3,-11 14,-27 19,-39 89,-182 65,-391 -60,-549l-51 -56c-8,-3 -68,-62 -158,-98 -67,-26 -141,-39 -220,-35 -117,13 -183,35 -271,97l-59 52c-6,7 -13,11 -19,18 -6,7 -11,13 -17,20 -99,121 -150,302 -91,483 91,276 385,417 652,327 17,-6 37,-14 53,-21 13,-6 38,-22 49,-25 7,10 295,296 295,296 102,75 222,-17 198,-124 -11,-48 -37,-60 -55,-82z"/>
   <path d="M298 568l153 1 1 153 126 0 0 -153c30,0 133,4 153,-1l0 -125 -153 -1 0 -153 -126 0 -1 153 -153 0 0 125z"/>
  </g>
</svg>
